<svg id="Capa_1" data-name="Capa 1" xmlns="http://www.w3.org/2000/svg" viewBox="0 0 164.19 42"><defs><style>.cls-1{fill:#ffffff;}</style></defs><polygon class="cls-1" points="33.54 41.1 37.24 32.9 27.13 9.22 34.73 9.22 40.79 25.15 46.71 9.22 54.27 9.22 41 41.1 33.54 41.1"/><path class="cls-1" d="M67.63,33C59.35,33,54,28.16,54,20.73c0-7.16,5.14-12.17,12.49-12.17,7,0,11.47,4.57,11.47,11.65a21.7,21.7,0,0,1-.12,2.22H61.3c.1.62.4,5.16,7.17,5.16a22.18,22.18,0,0,0,7.1-1.32L77.06,31A22.71,22.71,0,0,1,67.63,33ZM66.4,13.57c-4.91,0-5.22,5.43-5.22,5.43H71.5S71.52,13.57,66.4,13.57Z"/><path class="cls-1" d="M99,32.29V19.5a4.8,4.8,0,0,0-5-5.09,5.19,5.19,0,0,0-5.36,5.49V32.29H81.73V9.22h6.72v3.9a10.42,10.42,0,0,1,8.76-4.56c5.25,0,8.65,3.65,8.65,9.31V32.29Z"/><path class="cls-1" d="M9.93,33C4,33,0,28,0,20.73S4,8.56,10,8.56a9.38,9.38,0,0,1,8.4,5.51V9.22h6.86V32.29H18.5v-5A9.88,9.88,0,0,1,9.93,33Zm2.91-18.54c-3.37,0-5.63,2.54-5.63,6.32s2.26,6.38,5.63,6.38,5.62-2.56,5.62-6.38S16.15,14.41,12.84,14.41Z"/><path class="cls-1" d="M148.84,33c-5.94,0-9.93-4.91-9.93-12.22s4-12.17,10-12.17a9.38,9.38,0,0,1,8.4,5.51V9.22h6.86V32.29h-6.77v-5A9.91,9.91,0,0,1,148.84,33Zm2.91-18.54c-3.36,0-5.62,2.54-5.62,6.32s2.26,6.38,5.62,6.38,5.62-2.56,5.62-6.38S155.06,14.41,151.75,14.41Z"/><path class="cls-1" d="M119.66,33c-5.94,0-9.93-4.91-9.93-12.22s4-12.17,10-12.17a9.37,9.37,0,0,1,8.4,5.51V0H135V32.29h-6.77v-5A9.91,9.91,0,0,1,119.66,33Zm2.91-18.54c-3.36,0-5.62,2.54-5.62,6.32s2.26,6.38,5.62,6.38,5.62-2.56,5.62-6.38S125.88,14.41,122.57,14.41Z"/></svg>
